<svg width="256" height="256" viewBox="0 0 256 256" fill="none" xmlns="http://www.w3.org/2000/svg" shape-rendering="crispEdges">
  <rect width="256" height="256" rx="32" fill="#0F1720"/>
  <rect x="48" y="48" width="16" height="160" fill="#D7E3F4"/>
  <rect x="64" y="48" width="16" height="16" fill="#D7E3F4"/>
  <rect x="80" y="64" width="16" height="16" fill="#D7E3F4"/>
  <rect x="96" y="80" width="16" height="16" fill="#D7E3F4"/>
  <rect x="112" y="96" width="16" height="16" fill="#D7E3F4"/>
  <rect x="128" y="112" width="16" height="16" fill="#D7E3F4"/>
  <rect x="144" y="128" width="16" height="16" fill="#D7E3F4"/>
  <rect x="160" y="144" width="16" height="16" fill="#D7E3F4"/>
  <rect x="176" y="160" width="16" height="16" fill="#D7E3F4"/>
  <rect x="64" y="192" width="16" height="16" fill="#D7E3F4"/>
  <rect x="80" y="176" width="16" height="16" fill="#D7E3F4"/>
  <rect x="96" y="160" width="16" height="16" fill="#D7E3F4"/>
  <rect x="112" y="144" width="16" height="16" fill="#D7E3F4"/>
  <rect x="128" y="128" width="16" height="16" fill="#5BA7FF"/>
  <rect x="144" y="112" width="16" height="16" fill="#FF8A3D"/>
  <rect x="160" y="96" width="16" height="16" fill="#5BA7FF"/>
  <rect x="176" y="80" width="16" height="16" fill="#D7E3F4"/>
  <rect x="192" y="64" width="16" height="16" fill="#D7E3F4"/>
  <rect x="192" y="80" width="16" height="96" fill="#D7E3F4"/>
  <rect x="176" y="176" width="16" height="16" fill="#D7E3F4"/>
  <rect x="160" y="192" width="16" height="16" fill="#D7E3F4"/>
  <rect x="112" y="48" width="48" height="16" fill="#5BA7FF"/>
  <rect x="96" y="64" width="16" height="16" fill="#5BA7FF"/>
  <rect x="160" y="64" width="16" height="16" fill="#FF8A3D"/>
</svg>
