<svg width="640" height="200" viewBox="0 0 640 200" fill="none" xmlns="http://www.w3.org/2000/svg" shape-rendering="crispEdges">
  <rect width="640" height="200" rx="20" fill="#C4A882"/>

  <!-- 双D图标阴影层 (opacity 0.25) -->
  <g opacity="0.25" fill="#6B5B47">
    <!-- 外层D -->
    <rect x="36" y="39" width="10" height="102"/>
    <rect x="46" y="39" width="10" height="10"/>
    <rect x="56" y="39" width="10" height="10"/>
    <rect x="66" y="49" width="10" height="10"/>
    <rect x="76" y="59" width="10" height="10"/>
    <rect x="86" y="69" width="10" height="10"/>
    <rect x="96" y="79" width="10" height="10"/>
    <rect x="106" y="89" width="10" height="10"/>
    <rect x="116" y="99" width="10" height="10"/>
    <rect x="46" y="131" width="10" height="10"/>
    <rect x="56" y="131" width="10" height="10"/>

    <!-- 外层D右侧弧线 -->
    <rect x="66" y="121" width="10" height="10"/>
    <rect x="76" y="111" width="10" height="10"/>
    <rect x="86" y="101" width="10" height="10"/>
    <rect x="96" y="91" width="10" height="10"/>
    <rect x="106" y="81" width="10" height="10"/>
    <rect x="116" y="71" width="10" height="10"/>
    <rect x="126" y="61" width="10" height="10"/>
    <rect x="126" y="71" width="10" height="40"/>
    <rect x="116" y="111" width="10" height="10"/>
    <rect x="106" y="121" width="10" height="10"/>
    <rect x="96" y="131" width="10" height="10"/>
    <rect x="86" y="131" width="10" height="10"/>

    <!-- 内层D -->
    <rect x="56" y="59" width="10" height="62"/>
    <rect x="66" y="59" width="10" height="10"/>
    <rect x="76" y="69" width="10" height="10"/>
    <rect x="86" y="79" width="10" height="10"/>
    <rect x="76" y="99" width="10" height="10"/>
    <rect x="86" y="89" width="10" height="10"/>
    <rect x="66" y="109" width="10" height="10"/>
  </g>

  <!-- 双D图标主体层 -->
  <g fill="#FFF8F0">
    <!-- 外层D -->
    <rect x="30" y="32" width="10" height="102"/>
    <rect x="40" y="32" width="10" height="10"/>
    <rect x="50" y="32" width="10" height="10"/>
    <rect x="60" y="42" width="10" height="10"/>
    <rect x="70" y="52" width="10" height="10"/>
    <rect x="80" y="62" width="10" height="10"/>
    <rect x="90" y="72" width="10" height="10"/>
    <rect x="100" y="82" width="10" height="10"/>
    <rect x="110" y="92" width="10" height="10"/>
    <rect x="40" y="124" width="10" height="10"/>
    <rect x="50" y="124" width="10" height="10"/>

    <!-- 外层D右侧弧线 -->
    <rect x="60" y="114" width="10" height="10"/>
    <rect x="70" y="104" width="10" height="10"/>
    <rect x="80" y="94" width="10" height="10"/>
    <rect x="90" y="84" width="10" height="10"/>
    <rect x="100" y="74" width="10" height="10"/>
    <rect x="110" y="64" width="10" height="10"/>
    <rect x="120" y="54" width="10" height="10"/>
    <rect x="120" y="64" width="10" height="40"/>
    <rect x="110" y="104" width="10" height="10"/>
    <rect x="100" y="114" width="10" height="10"/>
    <rect x="90" y="124" width="10" height="10"/>
    <rect x="80" y="124" width="10" height="10"/>

    <!-- 内层D -->
    <rect x="50" y="52" width="10" height="62"/>
    <rect x="60" y="52" width="10" height="10"/>
    <rect x="70" y="62" width="10" height="10"/>
    <rect x="80" y="72" width="10" height="10"/>
    <rect x="70" y="92" width="10" height="10"/>
    <rect x="80" y="82" width="10" height="10"/>
    <rect x="60" y="102" width="10" height="10"/>
  </g>

  <!-- DOPPEL 文字阴影层 (opacity 0.25) -->
  <g opacity="0.25" fill="#6B5B47">
    <!-- D -->
    <rect x="196" y="59" width="10" height="62"/>
    <rect x="206" y="59" width="30" height="10"/>
    <rect x="236" y="69" width="10" height="42"/>
    <rect x="206" y="111" width="30" height="10"/>

    <!-- O -->
    <rect x="266" y="59" width="10" height="62"/>
    <rect x="276" y="59" width="30" height="10"/>
    <rect x="306" y="69" width="10" height="42"/>
    <rect x="276" y="111" width="30" height="10"/>

    <!-- P -->
    <rect x="336" y="59" width="10" height="62"/>
    <rect x="346" y="59" width="30" height="10"/>
    <rect x="376" y="69" width="10" height="22"/>
    <rect x="346" y="91" width="30" height="10"/>

    <!-- P -->
    <rect x="406" y="59" width="10" height="62"/>
    <rect x="416" y="59" width="30" height="10"/>
    <rect x="446" y="69" width="10" height="22"/>
    <rect x="416" y="91" width="30" height="10"/>

    <!-- E -->
    <rect x="476" y="59" width="10" height="62"/>
    <rect x="486" y="59" width="40" height="10"/>
    <rect x="486" y="85" width="30" height="10"/>
    <rect x="486" y="111" width="40" height="10"/>

    <!-- L -->
    <rect x="546" y="59" width="10" height="62"/>
    <rect x="556" y="111" width="40" height="10"/>
  </g>

  <!-- DOPPEL 文字主体层 -->
  <g fill="#FFF8F0">
    <!-- D -->
    <rect x="190" y="52" width="10" height="62"/>
    <rect x="200" y="52" width="30" height="10"/>
    <rect x="230" y="62" width="10" height="42"/>
    <rect x="200" y="104" width="30" height="10"/>

    <!-- O -->
    <rect x="260" y="52" width="10" height="62"/>
    <rect x="270" y="52" width="30" height="10"/>
    <rect x="300" y="62" width="10" height="42"/>
    <rect x="270" y="104" width="30" height="10"/>

    <!-- P -->
    <rect x="330" y="52" width="10" height="62"/>
    <rect x="340" y="52" width="30" height="10"/>
    <rect x="370" y="62" width="10" height="22"/>
    <rect x="340" y="84" width="30" height="10"/>

    <!-- P -->
    <rect x="400" y="52" width="10" height="62"/>
    <rect x="410" y="52" width="30" height="10"/>
    <rect x="440" y="62" width="10" height="22"/>
    <rect x="410" y="84" width="30" height="10"/>

    <!-- E -->
    <rect x="470" y="52" width="10" height="62"/>
    <rect x="480" y="52" width="40" height="10"/>
    <rect x="480" y="78" width="30" height="10"/>
    <rect x="480" y="104" width="40" height="10"/>

    <!-- L -->
    <rect x="540" y="52" width="10" height="62"/>
    <rect x="550" y="104" width="40" height="10"/>
  </g>
</svg>
